<?xml version="1.0" encoding="UTF-8"?>
<svg viewBox="0 0 928.67 265.78" xmlns="http://www.w3.org/2000/svg">
<defs>
<style>.f194c1cd-4956-42b9-ae4b-e0910c35ebbd{fill:#ff7c1a;}.aa70426e-661a-4894-a92d-ad7218e8bb32{fill:#a04e20;}.ad111e33-af97-4dd0-ba1e-fb44ce105248{fill:#fff;}</style>
</defs>
<title>Geekommerce 2</title>
<g data-name="Capa 2">
<g data-name="Capa 1">
<path class="f194c1cd-4956-42b9-ae4b-e0910c35ebbd" d="M67.1,264H29.42q-15,0-22.18-6T0,239.58V202.26q0-12.44,7.24-18.42t22.18-6H59.33a4.52,4.52,0,0,1,3.29,1,4.55,4.55,0,0,1,1,3.29v14.47a4.55,4.55,0,0,1-1,3.29,4.52,4.52,0,0,1-3.29,1H34.45c-2.47,0-4.31.51-5.5,1.5a5.49,5.49,0,0,0-1.8,4.48v28.59a6.19,6.19,0,0,0,1.38,4.43,5.43,5.43,0,0,0,4.12,1.43H44.26V222.71a4.58,4.58,0,0,1,1-3.29,4.56,4.56,0,0,1,3.29-1H67.1a3.68,3.68,0,0,1,4.31,4.3v37A3.68,3.68,0,0,1,67.1,264Z"/>
<path class="f194c1cd-4956-42b9-ae4b-e0910c35ebbd" d="m145.81 264h-55.5a3.68 3.68 0 0 1-4.31-4.3v-77.53a3.7 3.7 0 0 1 4.31-4.31h55.5a3.68 3.68 0 0 1 4.3 4.31v14a3.68 3.68 0 0 1-4.3 4.31h-33v9.21h23.33a3.68 3.68 0 0 1 4.31 4.3v12.8a3.7 3.7 0 0 1-4.31 4.31h-23.35v10.28h33a3.68 3.68 0 0 1 4.3 4.31v14a3.67 3.67 0 0 1-4.3 4.3z"/>
<path class="f194c1cd-4956-42b9-ae4b-e0910c35ebbd" d="M224,264h-55.5a3.67,3.67,0,0,1-4.3-4.3V182.17a3.68,3.68,0,0,1,4.3-4.31H224a3.7,3.7,0,0,1,4.31,4.31v14a3.7,3.7,0,0,1-4.31,4.31H191v9.21h23.33a3.67,3.67,0,0,1,4.3,4.3v12.8a3.68,3.68,0,0,1-4.3,4.31H191v10.28h33a3.7,3.7,0,0,1,4.31,4.31v14A3.68,3.68,0,0,1,224,264Z"/>
<path class="f194c1cd-4956-42b9-ae4b-e0910c35ebbd" d="M265.3,264H246.76a3.68,3.68,0,0,1-4.31-4.3V182.17a3.7,3.7,0,0,1,4.31-4.31H265.3a3.7,3.7,0,0,1,4.31,4.31v27.51h4.78l12.32-27.87a6,6,0,0,1,2.27-3.05,6.91,6.91,0,0,1,3.71-.9h18.42a3.15,3.15,0,0,1,2.75,1c.48.68.44,1.65-.12,2.93l-12.2,27.87a15,15,0,0,1,10.71,4.72q4,4.36,4,11.55v33.73A3.68,3.68,0,0,1,312,264H293.53a3.68,3.68,0,0,1-4.31-4.3V236.35a4.4,4.4,0,0,0-1-3,3.65,3.65,0,0,0-2.87-1.08H269.61v27.4a3.68,3.68,0,0,1-4.31,4.3Z"/>
<path class="f194c1cd-4956-42b9-ae4b-e0910c35ebbd" d="m404.65 241.37a29.24 29.24 0 0 1-1.62 10 16.66 16.66 0 0 1-5.74 7.66 30.7 30.7 0 0 1-11.36 5 94.84 94.84 0 0 1-36.78 0 30.65 30.65 0 0 1-11.42-5 16.68 16.68 0 0 1-5.75-7.66 29.49 29.49 0 0 1-1.61-10v-40.78a29.49 29.49 0 0 1 1.61-10 17.09 17.09 0 0 1 5.75-7.72 30.17 30.17 0 0 1 11.42-5 95.36 95.36 0 0 1 36.78 0 30.22 30.22 0 0 1 11.36 5 17.07 17.07 0 0 1 5.71 7.73 29.24 29.24 0 0 1 1.62 10zm-47.13-4.3a5.18 5.18 0 0 0 1.8 4q1.79 1.6 8.25 1.61t8.25-1.61a5.18 5.18 0 0 0 1.8-4v-32.18a5.06 5.06 0 0 0-1.8-3.89q-1.79-1.6-8.25-1.61t-8.25 1.61a5.06 5.06 0 0 0-1.8 3.89z"/>
<path class="f194c1cd-4956-42b9-ae4b-e0910c35ebbd" d="M442,264H424.14a3.68,3.68,0,0,1-4.3-4.3V182.17a3.69,3.69,0,0,1,4.3-4.31H443.4a5.58,5.58,0,0,1,3.17.84,7.73,7.73,0,0,1,2.34,2.75l10.76,19.49a9.54,9.54,0,0,0,1,1.56,1.4,1.4,0,0,0,1.13.48h1.08a1.44,1.44,0,0,0,1.14-.48,10.37,10.37,0,0,0,1-1.56l10.65-19.49A7.72,7.72,0,0,1,478,178.7a5.58,5.58,0,0,1,3.17-.84h19.38a3.68,3.68,0,0,1,4.3,4.31v77.51a3.67,3.67,0,0,1-4.3,4.3H482.16a3.68,3.68,0,0,1-4.31-4.3V217.57l-7.06,13a6.4,6.4,0,0,1-6.33,3.83h-4.79a6.41,6.41,0,0,1-6.34-3.83l-7.06-13v42.11A3.67,3.67,0,0,1,442,264Z"/>
<path class="f194c1cd-4956-42b9-ae4b-e0910c35ebbd" d="M543.52,264H525.7a3.68,3.68,0,0,1-4.31-4.3V182.17a3.7,3.7,0,0,1,4.31-4.31H545a5.6,5.6,0,0,1,3.17.84,7.82,7.82,0,0,1,2.33,2.75l10.76,19.49a9.54,9.54,0,0,0,1,1.56,1.44,1.44,0,0,0,1.14.48h1.07a1.44,1.44,0,0,0,1.14-.48,9,9,0,0,0,1-1.56l10.65-19.49a7.82,7.82,0,0,1,2.33-2.75,5.6,5.6,0,0,1,3.17-.84h19.38a3.7,3.7,0,0,1,4.31,4.31v77.51a3.68,3.68,0,0,1-4.31,4.3H583.71a3.68,3.68,0,0,1-4.31-4.3V217.57l-7,13a6.41,6.41,0,0,1-6.34,3.83h-4.79a6.43,6.43,0,0,1-6.34-3.83l-7-13v42.11a3.68,3.68,0,0,1-4.31,4.3Z"/>
<path class="f194c1cd-4956-42b9-ae4b-e0910c35ebbd" d="m682.75 264h-55.5a3.68 3.68 0 0 1-4.31-4.3v-77.53a3.7 3.7 0 0 1 4.31-4.31h55.5a3.68 3.68 0 0 1 4.3 4.31v14a3.68 3.68 0 0 1-4.3 4.31h-33v9.21h23.32a3.68 3.68 0 0 1 4.31 4.3v12.8a3.7 3.7 0 0 1-4.31 4.31h-23.33v10.28h33a3.68 3.68 0 0 1 4.3 4.31v14a3.67 3.67 0 0 1-4.3 4.3z"/>
<path class="f194c1cd-4956-42b9-ae4b-e0910c35ebbd" d="M723.9,264H705.48a3.68,3.68,0,0,1-4.31-4.3V182.17a3.7,3.7,0,0,1,4.31-4.31h39.83q13.4,0,18.48,5.56t5.08,14.42v5.5a22,22,0,0,1-1.49,8.55,9.32,9.32,0,0,1-5.21,5.08,15.75,15.75,0,0,1,10.47,5.27q4,4.55,4,12.08v25.36a3.68,3.68,0,0,1-4.31,4.3H753.8a3.68,3.68,0,0,1-4.31-4.3V241.37a6.17,6.17,0,0,0-1-3.88,4.31,4.31,0,0,0-3.53-1.26H728.2v23.45a3.67,3.67,0,0,1-4.3,4.3Zm4.3-64.59V214.7h9c2.08,0,3.47-.54,4.19-1.61a7.08,7.08,0,0,0,1.08-4V205a7.08,7.08,0,0,0-1.08-4c-.72-1.07-2.11-1.61-4.19-1.61Z"/>
<path class="f194c1cd-4956-42b9-ae4b-e0910c35ebbd" d="M846.74,264H817.55q-15,0-22.18-6t-7.24-18.42v-37.2q0-12.44,7.24-18.48t22.18-6h29.19a3.7,3.7,0,0,1,4.31,4.31v14.47a3.68,3.68,0,0,1-4.31,4.3h-24c-2.48,0-4.31.51-5.51,1.5a5.52,5.52,0,0,0-1.79,4.48v28.47a5.17,5.17,0,0,0,1.79,4.37c1.2.92,3,1.38,5.51,1.38h24a3.68,3.68,0,0,1,4.31,4.3v14.24a3.68,3.68,0,0,1-4.31,4.3Z"/>
<path class="f194c1cd-4956-42b9-ae4b-e0910c35ebbd" d="M924.37,264h-55.5a3.68,3.68,0,0,1-4.31-4.3V182.17a3.7,3.7,0,0,1,4.31-4.31h55.5a3.68,3.68,0,0,1,4.3,4.31v14a3.68,3.68,0,0,1-4.3,4.31h-33v9.21h23.32A3.68,3.68,0,0,1,919,214v12.8a3.7,3.7,0,0,1-4.31,4.31H891.36v10.28h33a3.68,3.68,0,0,1,4.3,4.31v14a3.67,3.67,0,0,1-4.3,4.3Z"/>
<rect class="f194c1cd-4956-42b9-ae4b-e0910c35ebbd" x="317.27" width="294.13" height="136.77" rx="68.38"/>
<rect class="aa70426e-661a-4894-a92d-ad7218e8bb32" transform="translate(463.32 -317.27) rotate(90)" x="377.2" y="35.7" width="26.2" height="74.65" rx="12.6"/>
<rect class="aa70426e-661a-4894-a92d-ad7218e8bb32" transform="translate(780.59 146.05) rotate(180)" x="377.2" y="35.7" width="26.2" height="74.65" rx="12.6"/>
<circle class="aa70426e-661a-4894-a92d-ad7218e8bb32" cx="532.41" cy="50.66" r="11.23"/>
<circle class="aa70426e-661a-4894-a92d-ad7218e8bb32" cx="532.41" cy="95.39" r="11.23"/>
<circle class="aa70426e-661a-4894-a92d-ad7218e8bb32" cx="555.19" cy="73.44" r="11.23"/>
<circle class="aa70426e-661a-4894-a92d-ad7218e8bb32" cx="509.63" cy="73.44" r="11.23"/>
<rect class="ad111e33-af97-4dd0-ba1e-fb44ce105248" transform="translate(463.32 -326.55) rotate(90)" x="381.84" y="31.06" width="26.2" height="74.65" rx="12.6"/>
<rect class="ad111e33-af97-4dd0-ba1e-fb44ce105248" transform="translate(789.87 136.77) rotate(180)" x="381.84" y="31.06" width="26.2" height="74.65" rx="12.6"/>
<circle class="ad111e33-af97-4dd0-ba1e-fb44ce105248" cx="537.05" cy="46.02" r="11.23"/>
<circle class="ad111e33-af97-4dd0-ba1e-fb44ce105248" cx="537.05" cy="90.75" r="11.23"/>
<circle class="ad111e33-af97-4dd0-ba1e-fb44ce105248" cx="559.83" cy="68.8" r="11.23"/>
<circle class="ad111e33-af97-4dd0-ba1e-fb44ce105248" cx="514.27" cy="68.8" r="11.23"/>
</g>
</g>
</svg>
