<?xml version="1.0" encoding="UTF-8"?>
<svg viewBox="0 0 294.13 136.77" xmlns="http://www.w3.org/2000/svg">
<defs>
<style>.a997dff7-a561-420b-a604-ffbf36deeca2{fill:#ff2806;}.a8c768f4-0ff2-4a47-a227-02facdeea4fe{fill:#a04e20;}.f883941f-e240-479f-88a8-56fbf610e5ab{fill:#fff;}</style>
</defs>
<title>Recurso 6</title>
<g data-name="Capa 2">
<g data-name="Capa 1">
<rect class="a997dff7-a561-420b-a604-ffbf36deeca2" width="294.13" height="136.77" rx="68.38"/>
<rect class="a8c768f4-0ff2-4a47-a227-02facdeea4fe" transform="translate(62.71 -40.86) rotate(45)" x="68.87" y="21.62" width="23.61" height="67.28" rx="9.04"/>
<rect class="a8c768f4-0ff2-4a47-a227-02facdeea4fe" transform="translate(176.8 37.3) rotate(135)" x="68.87" y="21.62" width="23.61" height="67.28" rx="9.04"/>
<rect class="f883941f-e240-479f-88a8-56fbf610e5ab" transform="translate(58.53 -42.59) rotate(45)" x="68.87" y="15.71" width="23.61" height="67.28" rx="9.04"/>
<rect class="f883941f-e240-479f-88a8-56fbf610e5ab" transform="translate(172.62 27.2) rotate(135)" x="68.87" y="15.71" width="23.61" height="67.28" rx="9.04"/>
<rect class="a8c768f4-0ff2-4a47-a227-02facdeea4fe" transform="translate(101.6 -134.75) rotate(45)" x="201.65" y="21.62" width="23.61" height="67.28" rx="9.04"/>
<rect class="a8c768f4-0ff2-4a47-a227-02facdeea4fe" transform="translate(403.48 -56.6) rotate(135)" x="201.65" y="21.62" width="23.61" height="67.28" rx="9.04"/>
<rect class="f883941f-e240-479f-88a8-56fbf610e5ab" transform="translate(97.42 -136.48) rotate(45)" x="201.65" y="15.71" width="23.61" height="67.28" rx="9.04"/>
<rect class="f883941f-e240-479f-88a8-56fbf610e5ab" transform="translate(399.3 -66.69) rotate(135)" x="201.65" y="15.71" width="23.61" height="67.28" rx="9.04"/>
<circle class="a8c768f4-0ff2-4a47-a227-02facdeea4fe" cx="144.16" cy="106.54" r="14.06"/>
<circle class="f883941f-e240-479f-88a8-56fbf610e5ab" cx="149.97" cy="100.73" r="14.06"/>
</g>
</g>
</svg>
