<svg xmlns="http://www.w3.org/2000/svg" viewBox="0 0 104.08 50"><defs><style>.af8c20e7-3d6f-4511-a761-6be3471b309c{fill:#ffe500;}.fd27c456-8801-4672-9cde-cc576c03e79c{fill:#fff;}</style></defs><title>Recurso 1</title><g id="a515572a-c473-4dce-b209-11742d5f185b" data-name="Capa 2"><g id="f520b059-6c8e-47b6-a2b8-5d87f52b270b" data-name="Capa 1"><path class="af8c20e7-3d6f-4511-a761-6be3471b309c" d="M58.35,2.74H49.22L51.38,9h6.79c6.16,0,9.88,3,9.88,15.15,0,8.86-2.84,16.58-9.88,16.58l-13-37.95H39.48L28.07,35.92H46.62l-2-6.08-8.66,0,6.31-19.24L53.87,47.32h4.48c11,0,15.06-11.59,15.06-22.06C73.41,16,71.24,2.74,58.35,2.74Z"/><path class="af8c20e7-3d6f-4511-a761-6be3471b309c" d="M13.49,50H0V0H13.49V3.83H4.39V46.17h9.1Z"/><path class="fd27c456-8801-4672-9cde-cc576c03e79c" d="M27.3,49.65c-3.57,0-6.19-.62-7.8-1.84s-2.34-3.49-2.34-6.91V35c0-3.23-.5-5.38-1.53-6.56a7.29,7.29,0,0,0-4.63-2V23.8c2.32-.36,3.88-1.08,4.77-2.2s1.39-3.27,1.39-6.34V9.1c0-3.34.82-5.64,2.44-6.82S23.85.41,27.24.41h2.14V2.75H27.74a7,7,0,0,0-4.55,1.36c-1.14.94-1.69,2.66-1.69,5.27v5.94a24.08,24.08,0,0,1-.32,4.36,5,5,0,0,1-1.09,2.42,46,46,0,0,1-4,2.93s3.28,1.84,4.12,3.1,1.3,3.57,1.3,6.78v5.88c0,2.49.56,4.17,1.72,5.14a6.91,6.91,0,0,0,4.52,1.37h1.64v2.35Z"/><path class="af8c20e7-3d6f-4511-a761-6be3471b309c" d="M90.6,46.17h9.09V3.83H90.6V0h13.48V50H90.6Z"/><path class="fd27c456-8801-4672-9cde-cc576c03e79c" d="M76.78,49.65c3.57,0,6.19-.62,7.8-1.84s2.34-3.49,2.34-6.91V35c0-3.23.5-5.38,1.53-6.56a7.29,7.29,0,0,1,4.63-2V23.8c-2.32-.36-3.88-1.08-4.77-2.2s-1.39-3.27-1.39-6.34V9.1c0-3.34-.82-5.64-2.44-6.82S80.23.41,76.84.41H74.7V2.75h1.64a7,7,0,0,1,4.55,1.36c1.14.94,1.69,2.66,1.69,5.27v5.94a24.08,24.08,0,0,0,.32,4.36A5,5,0,0,0,84,22.1,46,46,0,0,0,88,25s-3.28,1.84-4.12,3.1-1.3,3.57-1.3,6.78v5.88c0,2.49-.56,4.17-1.72,5.14a6.91,6.91,0,0,1-4.52,1.37H74.7v2.35Z"/></g></g></svg>