<?xml version="1.0" encoding="UTF-8"?>
<svg viewBox="0 0 124.65 199.3" xmlns="http://www.w3.org/2000/svg">
<defs>
<style>.a05426b5-42dc-4fa2-a7bd-cd57ea5ea939{fill:#a04e20;}.b138038e-a9ce-47c1-8568-e11eaa260dab{fill:#ff7c1a;}.b8e6dce2-e446-4734-a82b-5ef84407a5eb{fill:#fff;}.b2b01a46-74b9-4705-b2c9-5914f1e33066{fill:#a0abb5;}.be279814-c252-4fd6-a828-f63491bbde15{fill:#1c2430;}.b26c98c1-e70d-4971-8101-c7dc1c1c204b{fill:#405166;}</style>
</defs>
<title>Recurso 5</title>
<g data-name="Capa 2">
<g data-name="Capa 1">
<path class="a05426b5-42dc-4fa2-a7bd-cd57ea5ea939" d="m78.21 156.1h-31.77a31.68 31.68 0 0 1 1.67-7.17c1.1-3.2 2.31-5.8 2.31-5.8h23.9a51.8 51.8 0 0 1 2.29 5.8 33 33 0 0 1 1.6 7.17z"/>
<path class="b138038e-a9ce-47c1-8568-e11eaa260dab" d="m62.23 199.3c-14.75-19-16.9-33.79-15.79-43.25h31.77c1.02 9.53-1.21 24.29-15.98 43.25z"/>
<path class="b8e6dce2-e446-4734-a82b-5ef84407a5eb" d="m69.19 156.09a32.83 32.83 0 0 1-6.93 20.64 32.75 32.75 0 0 1-6.81-20.66z"/>
<path class="b2b01a46-74b9-4705-b2c9-5914f1e33066" d="m69.19 156.09h-13.74a41 41 0 0 1 2.17-13h9.4a39.33 39.33 0 0 1 2.17 13z"/>
<path class="b138038e-a9ce-47c1-8568-e11eaa260dab" d="m109 108.61a123.82 123.82 0 0 1-11.42 29.76c5.91 1.72 12.15 6.13 14 16.81a29.55 29.55 0 0 0 12.32-15.78c2.8-9.19-1.9-23.85-14.9-30.79z"/>
<path class="a05426b5-42dc-4fa2-a7bd-cd57ea5ea939" d="m85.45 137.73a28.81 28.81 0 0 1 5-0.39 27.48 27.48 0 0 1 7.13 1 123.82 123.82 0 0 0 11.42-29.73 32.14 32.14 0 0 0-7-2.72 45.32 45.32 0 0 0-9.39-1.21z"/>
<path class="b138038e-a9ce-47c1-8568-e11eaa260dab" d="m32.14 104.55a45.57 45.57 0 0 0-9.4 1.18 31.88 31.88 0 0 0-7 2.69c-13.06 6.94-17.74 21.58-14.96 30.78a29.52 29.52 0 0 0 12.28 15.8c1.83-10.67 8.08-15.06 14-16.76a27.39 27.39 0 0 1 7.13-1 28.6 28.6 0 0 1 5 0.41z"/>
<path class="be279814-c252-4fd6-a828-f63491bbde15" d="m81.82 144h-11.69c20.8-33.45 22.4-74.92 13.32-105a38.58 38.58 0 0 0 9.94-5.29c10.95 30.36 10.48 74.85-11.57 110.29z"/>
<path class="b26c98c1-e70d-4971-8101-c7dc1c1c204b" d="M70.13,144l-27.31,0C22.12,110.35,20.66,69,30,39c.57-1.81,1.16-3.58,1.8-5.3,6.1,4.59,14.49,7.67,25,8.51,1.88.15,3.83.24,5.84.24A60.15,60.15,0,0,0,83.45,39C92.53,69.09,90.93,110.56,70.13,144Z"/>
<path class="a05426b5-42dc-4fa2-a7bd-cd57ea5ea939" d="M93.29,33.85a38.84,38.84,0,0,1-9.83,5.24.09.09,0,0,0,0-.05c-.53-1.81-1.12-3.59-1.75-5.31l-.11.08C76.92,21.11,70,7.67,61.9,0A7,7,0,0,1,64.55.3C76.74,3.82,86.92,16.54,93.29,33.85Z"/>
<path class="b138038e-a9ce-47c1-8568-e11eaa260dab" d="M83.46,39.09a60.25,60.25,0,0,1-21,3.41c-2,0-4-.09-5.84-.25a5.27,5.27,0,0,1-.56,0c-10.12-.91-18.32-4-24.39-8.46C38.12,16.46,48.34,3.78,60.45.29A7.58,7.58,0,0,1,61.9,0c8.14,7.64,15,21.08,19.69,33.78l.11-.08c.63,1.72,1.22,3.5,1.75,5.31A.09.09,0,0,1,83.46,39.09Z"/>
<circle class="be279814-c252-4fd6-a828-f63491bbde15" transform="translate(-11.17 135.81) rotate(-89.91)" cx="62.43" cy="73.5" r="20.5"/>
<circle class="b8e6dce2-e446-4734-a82b-5ef84407a5eb" transform="translate(-11.17 135.81) rotate(-89.91)" cx="62.43" cy="73.5" r="13.7"/>
</g>
</g>
</svg>
