<?xml version="1.0" encoding="UTF-8"?>
<svg viewBox="0 0 124.65 199.3" xmlns="http://www.w3.org/2000/svg">
<defs>
<style>.a5c4027a-2818-4027-843b-189769230c79{fill:#a04e20;}.e5018783-9f3d-4fde-b087-f42394893632{fill:#ff7c1a;}.b25f11a0-2821-47fd-b808-c9da53d240b7{fill:#fff;}.a696891f-3688-44fa-9e11-a720dfa31720{fill:#a0abb5;}.b62cec86-4cd3-4a90-958e-95dba135aae5{fill:#405166;}.b94e109f-1014-4d39-83af-f3ceaabcc71c{fill:#06080a;opacity:0.56;isolation:isolate;}</style>
</defs>
<title>Recurso 4</title>
<g data-name="Capa 2">
<g data-name="Capa 1">
<path class="a5c4027a-2818-4027-843b-189769230c79" d="m78.24 156.08h-31.77a32 32 0 0 1 1.66-7.18c1.1-3.2 2.3-5.8 2.3-5.8h23.9a50.71 50.71 0 0 1 2.3 5.8 32.92 32.92 0 0 1 1.61 7.18z"/>
<path class="e5018783-9f3d-4fde-b087-f42394893632" d="m62.33 199.3c-14.78-19-16.95-33.76-15.86-43.22h31.77c1.04 9.47-1.14 24.24-15.91 43.22z"/>
<path class="b25f11a0-2821-47fd-b808-c9da53d240b7" d="m69.22 156.08a32.87 32.87 0 0 1-6.89 20.65 32.71 32.71 0 0 1-6.85-20.65z"/>
<path class="a696891f-3688-44fa-9e11-a720dfa31720" d="m69.22 156.08h-13.74a41.16 41.16 0 0 1 2.15-13h9.37a39.2 39.2 0 0 1 2.22 13z"/>
<path class="e5018783-9f3d-4fde-b087-f42394893632" d="m109 108.54a124 124 0 0 1-11.37 29.78c5.91 1.71 12.16 6.11 14 16.78a29.51 29.51 0 0 0 12.3-15.8c2.76-9.19-1.93-23.84-14.93-30.76z"/>
<path class="a5c4027a-2818-4027-843b-189769230c79" d="m85.46 137.7a28.11 28.11 0 0 1 5-0.4 27 27 0 0 1 7.13 1 124 124 0 0 0 11.41-29.76 31.63 31.63 0 0 0-7-2.71 45.53 45.53 0 0 0-9.4-1.2z"/>
<path class="e5018783-9f3d-4fde-b087-f42394893632" d="m15.69 108.54a124 124 0 0 0 11.37 29.78c-5.91 1.71-12.16 6.11-14 16.78a29.51 29.51 0 0 1-12.27-15.8c-2.79-9.19 1.86-23.84 14.9-30.76z"/>
<path class="a5c4027a-2818-4027-843b-189769230c79" d="m39.19 137.7a28.11 28.11 0 0 0-5-0.4 27 27 0 0 0-7.13 1 124 124 0 0 1-11.37-29.78 31.63 31.63 0 0 1 7-2.71 45.53 45.53 0 0 1 9.4-1.2z"/>
<path class="b62cec86-4cd3-4a90-958e-95dba135aae5" d="m81.83 144h-39c-22-35.6-22.4-80-11.2-110.3 7.2 5.4 17.6 8.7 30.8 8.7s23.6-3.3 30.8-8.7c11 30.3 10.6 74.8-11.4 110.3z"/>
<path class="e5018783-9f3d-4fde-b087-f42394893632" d="m93.13 33.8c-7.2 5.4-17.7 8.7-30.8 8.7s-23.5-3.3-30.8-8.7c6.4-17.3 16.6-30 28.7-33.5a7.15 7.15 0 0 1 4.1 0c12.2 3.5 22.4 16.2 28.8 33.5z"/>
<circle class="b94e109f-1014-4d39-83af-f3ceaabcc71c" cx="62.33" cy="73.5" r="20.5"/>
<circle class="b25f11a0-2821-47fd-b808-c9da53d240b7" cx="62.33" cy="73.5" r="13.7"/>
</g>
</g>
</svg>
